<?xml version="1.0" encoding="utf-8" standalone="no"?>
<!DOCTYPE svg PUBLIC "-//W3C//DTD SVG 1.1//EN"
  "http://www.w3.org/Graphics/SVG/1.1/DTD/svg11.dtd">
<svg xmlns:xlink="http://www.w3.org/1999/xlink" width="720pt" height="239.76pt" viewBox="0 0 720 239.76" xmlns="http://www.w3.org/2000/svg" version="1.1">
 <metadata>
  <rdf:RDF xmlns:dc="http://purl.org/dc/elements/1.1/" xmlns:cc="http://creativecommons.org/ns#" xmlns:rdf="http://www.w3.org/1999/02/22-rdf-syntax-ns#">
   <cc:Work>
    <dc:type rdf:resource="http://purl.org/dc/dcmitype/StillImage"/>
    <dc:date>2022-02-03T10:29:02.922633</dc:date>
    <dc:format>image/svg+xml</dc:format>
    <dc:creator>
     <cc:Agent>
      <dc:title>Matplotlib v3.5.0, https://matplotlib.org/</dc:title>
     </cc:Agent>
    </dc:creator>
   </cc:Work>
  </rdf:RDF>
 </metadata>
 <defs>
  <style type="text/css">*{stroke-linejoin: round; stroke-linecap: butt}</style>
 </defs>
 <g id="figure_1">
  <g id="patch_1">
   <path d="M 0 239.76 
L 720 239.76 
L 720 0 
L 0 0 
z
" style="fill: #ffffff"/>
  </g>
  <g id="axes_1">
   <g id="patch_2">
    <path d="M 50.565625 198.60375 
L 253.791667 198.60375 
L 253.791667 25.918125 
L 50.565625 25.918125 
z
" style="fill: #ffffff"/>
   </g>
   <g id="patch_3">
    <path d="M 59.803172 198.60375 
L 65.961537 198.60375 
L 65.961537 195.613523 
L 59.803172 195.613523 
z
" clip-path="url(#p0074dbbd77)" style="fill: #add8e6"/>
   </g>
   <g id="patch_4">
    <path d="M 65.961537 198.60375 
L 72.119902 198.60375 
L 72.119902 198.60375 
L 65.961537 198.60375 
z
" clip-path="url(#p0074dbbd77)" style="fill: #add8e6"/>
   </g>
   <g id="patch_5">
    <path d="M 72.119902 198.60375 
L 78.278267 198.60375 
L 78.278267 195.613523 
L 72.119902 195.613523 
z
" clip-path="url(#p0074dbbd77)" style="fill: #add8e6"/>
   </g>
   <g id="patch_6">
    <path d="M 78.278267 198.60375 
L 84.436632 198.60375 
L 84.436632 194.118409 
L 78.278267 194.118409 
z
" clip-path="url(#p0074dbbd77)" style="fill: #add8e6"/>
   </g>
   <g id="patch_7">
    <path d="M 84.436632 198.60375 
L 90.594997 198.60375 
L 90.594997 191.128182 
L 84.436632 191.128182 
z
" clip-path="url(#p0074dbbd77)" style="fill: #add8e6"/>
   </g>
   <g id="patch_8">
    <path d="M 90.594997 198.60375 
L 96.753362 198.60375 
L 96.753362 183.652614 
L 90.594997 183.652614 
z
" clip-path="url(#p0074dbbd77)" style="fill: #add8e6"/>
   </g>
   <g id="patch_9">
    <path d="M 96.753362 198.60375 
L 102.911727 198.60375 
L 102.911727 185.147727 
L 96.753362 185.147727 
z
" clip-path="url(#p0074dbbd77)" style="fill: #add8e6"/>
   </g>
   <g id="patch_10">
    <path d="M 102.911727 198.60375 
L 109.070092 198.60375 
L 109.070092 176.177045 
L 102.911727 176.177045 
z
" clip-path="url(#p0074dbbd77)" style="fill: #add8e6"/>
   </g>
   <g id="patch_11">
    <path d="M 109.070092 198.60375 
L 115.228456 198.60375 
L 115.228456 168.701477 
L 109.070092 168.701477 
z
" clip-path="url(#p0074dbbd77)" style="fill: #add8e6"/>
   </g>
   <g id="patch_12">
    <path d="M 115.228456 198.60375 
L 121.386821 198.60375 
L 121.386821 170.196591 
L 115.228456 170.196591 
z
" clip-path="url(#p0074dbbd77)" style="fill: #add8e6"/>
   </g>
   <g id="patch_13">
    <path d="M 121.386821 198.60375 
L 127.545186 198.60375 
L 127.545186 152.255227 
L 121.386821 152.255227 
z
" clip-path="url(#p0074dbbd77)" style="fill: #add8e6"/>
   </g>
   <g id="patch_14">
    <path d="M 127.545186 198.60375 
L 133.703551 198.60375 
L 133.703551 134.313864 
L 127.545186 134.313864 
z
" clip-path="url(#p0074dbbd77)" style="fill: #add8e6"/>
   </g>
   <g id="patch_15">
    <path d="M 133.703551 198.60375 
L 139.861916 198.60375 
L 139.861916 114.877386 
L 133.703551 114.877386 
z
" clip-path="url(#p0074dbbd77)" style="fill: #add8e6"/>
   </g>
   <g id="patch_16">
    <path d="M 139.861916 198.60375 
L 146.020281 198.60375 
L 146.020281 98.431136 
L 139.861916 98.431136 
z
" clip-path="url(#p0074dbbd77)" style="fill: #add8e6"/>
   </g>
   <g id="patch_17">
    <path d="M 146.020281 198.60375 
L 152.178646 198.60375 
L 152.178646 73.014205 
L 146.020281 73.014205 
z
" clip-path="url(#p0074dbbd77)" style="fill: #add8e6"/>
   </g>
   <g id="patch_18">
    <path d="M 152.178646 198.60375 
L 158.337011 198.60375 
L 158.337011 70.023977 
L 152.178646 70.023977 
z
" clip-path="url(#p0074dbbd77)" style="fill: #add8e6"/>
   </g>
   <g id="patch_19">
    <path d="M 158.337011 198.60375 
L 164.495376 198.60375 
L 164.495376 76.004432 
L 158.337011 76.004432 
z
" clip-path="url(#p0074dbbd77)" style="fill: #add8e6"/>
   </g>
   <g id="patch_20">
    <path d="M 164.495376 198.60375 
L 170.653741 198.60375 
L 170.653741 76.004432 
L 164.495376 76.004432 
z
" clip-path="url(#p0074dbbd77)" style="fill: #add8e6"/>
   </g>
   <g id="patch_21">
    <path d="M 170.653741 198.60375 
L 176.812105 198.60375 
L 176.812105 81.984886 
L 170.653741 81.984886 
z
" clip-path="url(#p0074dbbd77)" style="fill: #add8e6"/>
   </g>
   <g id="patch_22">
    <path d="M 176.812105 198.60375 
L 182.97047 198.60375 
L 182.97047 113.382273 
L 176.812105 113.382273 
z
" clip-path="url(#p0074dbbd77)" style="fill: #add8e6"/>
   </g>
   <g id="patch_23">
    <path d="M 182.97047 198.60375 
L 189.128835 198.60375 
L 189.128835 117.867614 
L 182.97047 117.867614 
z
" clip-path="url(#p0074dbbd77)" style="fill: #add8e6"/>
   </g>
   <g id="patch_24">
    <path d="M 189.128835 198.60375 
L 195.2872 198.60375 
L 195.2872 119.362727 
L 189.128835 119.362727 
z
" clip-path="url(#p0074dbbd77)" style="fill: #add8e6"/>
   </g>
   <g id="patch_25">
    <path d="M 195.2872 198.60375 
L 201.445565 198.60375 
L 201.445565 131.323636 
L 195.2872 131.323636 
z
" clip-path="url(#p0074dbbd77)" style="fill: #add8e6"/>
   </g>
   <g id="patch_26">
    <path d="M 201.445565 198.60375 
L 207.60393 198.60375 
L 207.60393 149.265 
L 201.445565 149.265 
z
" clip-path="url(#p0074dbbd77)" style="fill: #add8e6"/>
   </g>
   <g id="patch_27">
    <path d="M 207.60393 198.60375 
L 213.762295 198.60375 
L 213.762295 152.255227 
L 207.60393 152.255227 
z
" clip-path="url(#p0074dbbd77)" style="fill: #add8e6"/>
   </g>
   <g id="patch_28">
    <path d="M 213.762295 198.60375 
L 219.92066 198.60375 
L 219.92066 176.177045 
L 213.762295 176.177045 
z
" clip-path="url(#p0074dbbd77)" style="fill: #add8e6"/>
   </g>
   <g id="patch_29">
    <path d="M 219.92066 198.60375 
L 226.079025 198.60375 
L 226.079025 189.633068 
L 219.92066 189.633068 
z
" clip-path="url(#p0074dbbd77)" style="fill: #add8e6"/>
   </g>
   <g id="patch_30">
    <path d="M 226.079025 198.60375 
L 232.23739 198.60375 
L 232.23739 189.633068 
L 226.079025 189.633068 
z
" clip-path="url(#p0074dbbd77)" style="fill: #add8e6"/>
   </g>
   <g id="patch_31">
    <path d="M 232.23739 198.60375 
L 238.395754 198.60375 
L 238.395754 197.108636 
L 232.23739 197.108636 
z
" clip-path="url(#p0074dbbd77)" style="fill: #add8e6"/>
   </g>
   <g id="patch_32">
    <path d="M 238.395754 198.60375 
L 244.554119 198.60375 
L 244.554119 191.128182 
L 238.395754 191.128182 
z
" clip-path="url(#p0074dbbd77)" style="fill: #add8e6"/>
   </g>
   <g id="matplotlib.axis_1">
    <g id="xtick_1">
     <g id="line2d_1">
      <defs>
       <path id="m59482e914d" d="M 0 0 
L 0 3.5 
" style="stroke: #000000; stroke-width: 0.8"/>
      </defs>
      <g>
       <use xlink:href="#m59482e914d" x="75.500128" y="198.60375" style="stroke: #000000; stroke-width: 0.8"/>
      </g>
     </g>
     <g id="text_1">
      <!-- 4.5 -->
      <g transform="translate(67.548565 213.202188)scale(0.1 -0.1)">
       <defs>
        <path id="DejaVuSans-34" d="M 2419 4116 
L 825 1625 
L 2419 1625 
L 2419 4116 
z
M 2253 4666 
L 3047 4666 
L 3047 1625 
L 3713 1625 
L 3713 1100 
L 3047 1100 
L 3047 0 
L 2419 0 
L 2419 1100 
L 313 1100 
L 313 1709 
L 2253 4666 
z
" transform="scale(0.015625)"/>
        <path id="DejaVuSans-2e" d="M 684 794 
L 1344 794 
L 1344 0 
L 684 0 
L 684 794 
z
" transform="scale(0.015625)"/>
        <path id="DejaVuSans-35" d="M 691 4666 
L 3169 4666 
L 3169 4134 
L 1269 4134 
L 1269 2991 
Q 1406 3038 1543 3061 
Q 1681 3084 1819 3084 
Q 2600 3084 3056 2656 
Q 3513 2228 3513 1497 
Q 3513 744 3044 326 
Q 2575 -91 1722 -91 
Q 1428 -91 1123 -41 
Q 819 9 494 109 
L 494 744 
Q 775 591 1075 516 
Q 1375 441 1709 441 
Q 2250 441 2565 725 
Q 2881 1009 2881 1497 
Q 2881 1984 2565 2268 
Q 2250 2553 1709 2553 
Q 1456 2553 1204 2497 
Q 953 2441 691 2322 
L 691 4666 
z
" transform="scale(0.015625)"/>
       </defs>
       <use xlink:href="#DejaVuSans-34"/>
       <use xlink:href="#DejaVuSans-2e" x="63.623047"/>
       <use xlink:href="#DejaVuSans-35" x="95.410156"/>
      </g>
     </g>
    </g>
    <g id="xtick_2">
     <g id="line2d_2">
      <g>
       <use xlink:href="#m59482e914d" x="136.704714" y="198.60375" style="stroke: #000000; stroke-width: 0.8"/>
      </g>
     </g>
     <g id="text_2">
      <!-- 5.0 -->
      <g transform="translate(128.753152 213.202188)scale(0.1 -0.1)">
       <defs>
        <path id="DejaVuSans-30" d="M 2034 4250 
Q 1547 4250 1301 3770 
Q 1056 3291 1056 2328 
Q 1056 1369 1301 889 
Q 1547 409 2034 409 
Q 2525 409 2770 889 
Q 3016 1369 3016 2328 
Q 3016 3291 2770 3770 
Q 2525 4250 2034 4250 
z
M 2034 4750 
Q 2819 4750 3233 4129 
Q 3647 3509 3647 2328 
Q 3647 1150 3233 529 
Q 2819 -91 2034 -91 
Q 1250 -91 836 529 
Q 422 1150 422 2328 
Q 422 3509 836 4129 
Q 1250 4750 2034 4750 
z
" transform="scale(0.015625)"/>
       </defs>
       <use xlink:href="#DejaVuSans-35"/>
       <use xlink:href="#DejaVuSans-2e" x="63.623047"/>
       <use xlink:href="#DejaVuSans-30" x="95.410156"/>
      </g>
     </g>
    </g>
    <g id="xtick_3">
     <g id="line2d_3">
      <g>
       <use xlink:href="#m59482e914d" x="197.9093" y="198.60375" style="stroke: #000000; stroke-width: 0.8"/>
      </g>
     </g>
     <g id="text_3">
      <!-- 5.5 -->
      <g transform="translate(189.957738 213.202188)scale(0.1 -0.1)">
       <use xlink:href="#DejaVuSans-35"/>
       <use xlink:href="#DejaVuSans-2e" x="63.623047"/>
       <use xlink:href="#DejaVuSans-35" x="95.410156"/>
      </g>
     </g>
    </g>
    <g id="text_4">
     <!-- Posterior alpha values -->
     <g transform="translate(96.784115 226.880313)scale(0.1 -0.1)">
      <defs>
       <path id="DejaVuSans-50" d="M 1259 4147 
L 1259 2394 
L 2053 2394 
Q 2494 2394 2734 2622 
Q 2975 2850 2975 3272 
Q 2975 3691 2734 3919 
Q 2494 4147 2053 4147 
L 1259 4147 
z
M 628 4666 
L 2053 4666 
Q 2838 4666 3239 4311 
Q 3641 3956 3641 3272 
Q 3641 2581 3239 2228 
Q 2838 1875 2053 1875 
L 1259 1875 
L 1259 0 
L 628 0 
L 628 4666 
z
" transform="scale(0.015625)"/>
       <path id="DejaVuSans-6f" d="M 1959 3097 
Q 1497 3097 1228 2736 
Q 959 2375 959 1747 
Q 959 1119 1226 758 
Q 1494 397 1959 397 
Q 2419 397 2687 759 
Q 2956 1122 2956 1747 
Q 2956 2369 2687 2733 
Q 2419 3097 1959 3097 
z
M 1959 3584 
Q 2709 3584 3137 3096 
Q 3566 2609 3566 1747 
Q 3566 888 3137 398 
Q 2709 -91 1959 -91 
Q 1206 -91 779 398 
Q 353 888 353 1747 
Q 353 2609 779 3096 
Q 1206 3584 1959 3584 
z
" transform="scale(0.015625)"/>
       <path id="DejaVuSans-73" d="M 2834 3397 
L 2834 2853 
Q 2591 2978 2328 3040 
Q 2066 3103 1784 3103 
Q 1356 3103 1142 2972 
Q 928 2841 928 2578 
Q 928 2378 1081 2264 
Q 1234 2150 1697 2047 
L 1894 2003 
Q 2506 1872 2764 1633 
Q 3022 1394 3022 966 
Q 3022 478 2636 193 
Q 2250 -91 1575 -91 
Q 1294 -91 989 -36 
Q 684 19 347 128 
L 347 722 
Q 666 556 975 473 
Q 1284 391 1588 391 
Q 1994 391 2212 530 
Q 2431 669 2431 922 
Q 2431 1156 2273 1281 
Q 2116 1406 1581 1522 
L 1381 1569 
Q 847 1681 609 1914 
Q 372 2147 372 2553 
Q 372 3047 722 3315 
Q 1072 3584 1716 3584 
Q 2034 3584 2315 3537 
Q 2597 3491 2834 3397 
z
" transform="scale(0.015625)"/>
       <path id="DejaVuSans-74" d="M 1172 4494 
L 1172 3500 
L 2356 3500 
L 2356 3053 
L 1172 3053 
L 1172 1153 
Q 1172 725 1289 603 
Q 1406 481 1766 481 
L 2356 481 
L 2356 0 
L 1766 0 
Q 1100 0 847 248 
Q 594 497 594 1153 
L 594 3053 
L 172 3053 
L 172 3500 
L 594 3500 
L 594 4494 
L 1172 4494 
z
" transform="scale(0.015625)"/>
       <path id="DejaVuSans-65" d="M 3597 1894 
L 3597 1613 
L 953 1613 
Q 991 1019 1311 708 
Q 1631 397 2203 397 
Q 2534 397 2845 478 
Q 3156 559 3463 722 
L 3463 178 
Q 3153 47 2828 -22 
Q 2503 -91 2169 -91 
Q 1331 -91 842 396 
Q 353 884 353 1716 
Q 353 2575 817 3079 
Q 1281 3584 2069 3584 
Q 2775 3584 3186 3129 
Q 3597 2675 3597 1894 
z
M 3022 2063 
Q 3016 2534 2758 2815 
Q 2500 3097 2075 3097 
Q 1594 3097 1305 2825 
Q 1016 2553 972 2059 
L 3022 2063 
z
" transform="scale(0.015625)"/>
       <path id="DejaVuSans-72" d="M 2631 2963 
Q 2534 3019 2420 3045 
Q 2306 3072 2169 3072 
Q 1681 3072 1420 2755 
Q 1159 2438 1159 1844 
L 1159 0 
L 581 0 
L 581 3500 
L 1159 3500 
L 1159 2956 
Q 1341 3275 1631 3429 
Q 1922 3584 2338 3584 
Q 2397 3584 2469 3576 
Q 2541 3569 2628 3553 
L 2631 2963 
z
" transform="scale(0.015625)"/>
       <path id="DejaVuSans-69" d="M 603 3500 
L 1178 3500 
L 1178 0 
L 603 0 
L 603 3500 
z
M 603 4863 
L 1178 4863 
L 1178 4134 
L 603 4134 
L 603 4863 
z
" transform="scale(0.015625)"/>
       <path id="DejaVuSans-20" transform="scale(0.015625)"/>
       <path id="DejaVuSans-61" d="M 2194 1759 
Q 1497 1759 1228 1600 
Q 959 1441 959 1056 
Q 959 750 1161 570 
Q 1363 391 1709 391 
Q 2188 391 2477 730 
Q 2766 1069 2766 1631 
L 2766 1759 
L 2194 1759 
z
M 3341 1997 
L 3341 0 
L 2766 0 
L 2766 531 
Q 2569 213 2275 61 
Q 1981 -91 1556 -91 
Q 1019 -91 701 211 
Q 384 513 384 1019 
Q 384 1609 779 1909 
Q 1175 2209 1959 2209 
L 2766 2209 
L 2766 2266 
Q 2766 2663 2505 2880 
Q 2244 3097 1772 3097 
Q 1472 3097 1187 3025 
Q 903 2953 641 2809 
L 641 3341 
Q 956 3463 1253 3523 
Q 1550 3584 1831 3584 
Q 2591 3584 2966 3190 
Q 3341 2797 3341 1997 
z
" transform="scale(0.015625)"/>
       <path id="DejaVuSans-6c" d="M 603 4863 
L 1178 4863 
L 1178 0 
L 603 0 
L 603 4863 
z
" transform="scale(0.015625)"/>
       <path id="DejaVuSans-70" d="M 1159 525 
L 1159 -1331 
L 581 -1331 
L 581 3500 
L 1159 3500 
L 1159 2969 
Q 1341 3281 1617 3432 
Q 1894 3584 2278 3584 
Q 2916 3584 3314 3078 
Q 3713 2572 3713 1747 
Q 3713 922 3314 415 
Q 2916 -91 2278 -91 
Q 1894 -91 1617 61 
Q 1341 213 1159 525 
z
M 3116 1747 
Q 3116 2381 2855 2742 
Q 2594 3103 2138 3103 
Q 1681 3103 1420 2742 
Q 1159 2381 1159 1747 
Q 1159 1113 1420 752 
Q 1681 391 2138 391 
Q 2594 391 2855 752 
Q 3116 1113 3116 1747 
z
" transform="scale(0.015625)"/>
       <path id="DejaVuSans-68" d="M 3513 2113 
L 3513 0 
L 2938 0 
L 2938 2094 
Q 2938 2591 2744 2837 
Q 2550 3084 2163 3084 
Q 1697 3084 1428 2787 
Q 1159 2491 1159 1978 
L 1159 0 
L 581 0 
L 581 4863 
L 1159 4863 
L 1159 2956 
Q 1366 3272 1645 3428 
Q 1925 3584 2291 3584 
Q 2894 3584 3203 3211 
Q 3513 2838 3513 2113 
z
" transform="scale(0.015625)"/>
       <path id="DejaVuSans-76" d="M 191 3500 
L 800 3500 
L 1894 563 
L 2988 3500 
L 3597 3500 
L 2284 0 
L 1503 0 
L 191 3500 
z
" transform="scale(0.015625)"/>
       <path id="DejaVuSans-75" d="M 544 1381 
L 544 3500 
L 1119 3500 
L 1119 1403 
Q 1119 906 1312 657 
Q 1506 409 1894 409 
Q 2359 409 2629 706 
Q 2900 1003 2900 1516 
L 2900 3500 
L 3475 3500 
L 3475 0 
L 2900 0 
L 2900 538 
Q 2691 219 2414 64 
Q 2138 -91 1772 -91 
Q 1169 -91 856 284 
Q 544 659 544 1381 
z
M 1991 3584 
L 1991 3584 
z
" transform="scale(0.015625)"/>
      </defs>
      <use xlink:href="#DejaVuSans-50"/>
      <use xlink:href="#DejaVuSans-6f" x="56.677734"/>
      <use xlink:href="#DejaVuSans-73" x="117.859375"/>
      <use xlink:href="#DejaVuSans-74" x="169.958984"/>
      <use xlink:href="#DejaVuSans-65" x="209.167969"/>
      <use xlink:href="#DejaVuSans-72" x="270.691406"/>
      <use xlink:href="#DejaVuSans-69" x="311.804688"/>
      <use xlink:href="#DejaVuSans-6f" x="339.587891"/>
      <use xlink:href="#DejaVuSans-72" x="400.769531"/>
      <use xlink:href="#DejaVuSans-20" x="441.882812"/>
      <use xlink:href="#DejaVuSans-61" x="473.669922"/>
      <use xlink:href="#DejaVuSans-6c" x="534.949219"/>
      <use xlink:href="#DejaVuSans-70" x="562.732422"/>
      <use xlink:href="#DejaVuSans-68" x="626.208984"/>
      <use xlink:href="#DejaVuSans-61" x="689.587891"/>
      <use xlink:href="#DejaVuSans-20" x="750.867188"/>
      <use xlink:href="#DejaVuSans-76" x="782.654297"/>
      <use xlink:href="#DejaVuSans-61" x="841.833984"/>
      <use xlink:href="#DejaVuSans-6c" x="903.113281"/>
      <use xlink:href="#DejaVuSans-75" x="930.896484"/>
      <use xlink:href="#DejaVuSans-65" x="994.275391"/>
      <use xlink:href="#DejaVuSans-73" x="1055.798828"/>
     </g>
    </g>
   </g>
   <g id="matplotlib.axis_2">
    <g id="ytick_1">
     <g id="line2d_4">
      <defs>
       <path id="m16b4537dc5" d="M 0 0 
L -3.5 0 
" style="stroke: #000000; stroke-width: 0.8"/>
      </defs>
      <g>
       <use xlink:href="#m16b4537dc5" x="50.565625" y="198.60375" style="stroke: #000000; stroke-width: 0.8"/>
      </g>
     </g>
     <g id="text_5">
      <!-- 0 -->
      <g transform="translate(37.203125 202.402969)scale(0.1 -0.1)">
       <use xlink:href="#DejaVuSans-30"/>
      </g>
     </g>
    </g>
    <g id="ytick_2">
     <g id="line2d_5">
      <g>
       <use xlink:href="#m16b4537dc5" x="50.565625" y="168.701477" style="stroke: #000000; stroke-width: 0.8"/>
      </g>
     </g>
     <g id="text_6">
      <!-- 20 -->
      <g transform="translate(30.840625 172.500696)scale(0.1 -0.1)">
       <defs>
        <path id="DejaVuSans-32" d="M 1228 531 
L 3431 531 
L 3431 0 
L 469 0 
L 469 531 
Q 828 903 1448 1529 
Q 2069 2156 2228 2338 
Q 2531 2678 2651 2914 
Q 2772 3150 2772 3378 
Q 2772 3750 2511 3984 
Q 2250 4219 1831 4219 
Q 1534 4219 1204 4116 
Q 875 4013 500 3803 
L 500 4441 
Q 881 4594 1212 4672 
Q 1544 4750 1819 4750 
Q 2544 4750 2975 4387 
Q 3406 4025 3406 3419 
Q 3406 3131 3298 2873 
Q 3191 2616 2906 2266 
Q 2828 2175 2409 1742 
Q 1991 1309 1228 531 
z
" transform="scale(0.015625)"/>
       </defs>
       <use xlink:href="#DejaVuSans-32"/>
       <use xlink:href="#DejaVuSans-30" x="63.623047"/>
      </g>
     </g>
    </g>
    <g id="ytick_3">
     <g id="line2d_6">
      <g>
       <use xlink:href="#m16b4537dc5" x="50.565625" y="138.799205" style="stroke: #000000; stroke-width: 0.8"/>
      </g>
     </g>
     <g id="text_7">
      <!-- 40 -->
      <g transform="translate(30.840625 142.598423)scale(0.1 -0.1)">
       <use xlink:href="#DejaVuSans-34"/>
       <use xlink:href="#DejaVuSans-30" x="63.623047"/>
      </g>
     </g>
    </g>
    <g id="ytick_4">
     <g id="line2d_7">
      <g>
       <use xlink:href="#m16b4537dc5" x="50.565625" y="108.896932" style="stroke: #000000; stroke-width: 0.8"/>
      </g>
     </g>
     <g id="text_8">
      <!-- 60 -->
      <g transform="translate(30.840625 112.696151)scale(0.1 -0.1)">
       <defs>
        <path id="DejaVuSans-36" d="M 2113 2584 
Q 1688 2584 1439 2293 
Q 1191 2003 1191 1497 
Q 1191 994 1439 701 
Q 1688 409 2113 409 
Q 2538 409 2786 701 
Q 3034 994 3034 1497 
Q 3034 2003 2786 2293 
Q 2538 2584 2113 2584 
z
M 3366 4563 
L 3366 3988 
Q 3128 4100 2886 4159 
Q 2644 4219 2406 4219 
Q 1781 4219 1451 3797 
Q 1122 3375 1075 2522 
Q 1259 2794 1537 2939 
Q 1816 3084 2150 3084 
Q 2853 3084 3261 2657 
Q 3669 2231 3669 1497 
Q 3669 778 3244 343 
Q 2819 -91 2113 -91 
Q 1303 -91 875 529 
Q 447 1150 447 2328 
Q 447 3434 972 4092 
Q 1497 4750 2381 4750 
Q 2619 4750 2861 4703 
Q 3103 4656 3366 4563 
z
" transform="scale(0.015625)"/>
       </defs>
       <use xlink:href="#DejaVuSans-36"/>
       <use xlink:href="#DejaVuSans-30" x="63.623047"/>
      </g>
     </g>
    </g>
    <g id="ytick_5">
     <g id="line2d_8">
      <g>
       <use xlink:href="#m16b4537dc5" x="50.565625" y="78.994659" style="stroke: #000000; stroke-width: 0.8"/>
      </g>
     </g>
     <g id="text_9">
      <!-- 80 -->
      <g transform="translate(30.840625 82.793878)scale(0.1 -0.1)">
       <defs>
        <path id="DejaVuSans-38" d="M 2034 2216 
Q 1584 2216 1326 1975 
Q 1069 1734 1069 1313 
Q 1069 891 1326 650 
Q 1584 409 2034 409 
Q 2484 409 2743 651 
Q 3003 894 3003 1313 
Q 3003 1734 2745 1975 
Q 2488 2216 2034 2216 
z
M 1403 2484 
Q 997 2584 770 2862 
Q 544 3141 544 3541 
Q 544 4100 942 4425 
Q 1341 4750 2034 4750 
Q 2731 4750 3128 4425 
Q 3525 4100 3525 3541 
Q 3525 3141 3298 2862 
Q 3072 2584 2669 2484 
Q 3125 2378 3379 2068 
Q 3634 1759 3634 1313 
Q 3634 634 3220 271 
Q 2806 -91 2034 -91 
Q 1263 -91 848 271 
Q 434 634 434 1313 
Q 434 1759 690 2068 
Q 947 2378 1403 2484 
z
M 1172 3481 
Q 1172 3119 1398 2916 
Q 1625 2713 2034 2713 
Q 2441 2713 2670 2916 
Q 2900 3119 2900 3481 
Q 2900 3844 2670 4047 
Q 2441 4250 2034 4250 
Q 1625 4250 1398 4047 
Q 1172 3844 1172 3481 
z
" transform="scale(0.015625)"/>
       </defs>
       <use xlink:href="#DejaVuSans-38"/>
       <use xlink:href="#DejaVuSans-30" x="63.623047"/>
      </g>
     </g>
    </g>
    <g id="ytick_6">
     <g id="line2d_9">
      <g>
       <use xlink:href="#m16b4537dc5" x="50.565625" y="49.092386" style="stroke: #000000; stroke-width: 0.8"/>
      </g>
     </g>
     <g id="text_10">
      <!-- 100 -->
      <g transform="translate(24.478125 52.891605)scale(0.1 -0.1)">
       <defs>
        <path id="DejaVuSans-31" d="M 794 531 
L 1825 531 
L 1825 4091 
L 703 3866 
L 703 4441 
L 1819 4666 
L 2450 4666 
L 2450 531 
L 3481 531 
L 3481 0 
L 794 0 
L 794 531 
z
" transform="scale(0.015625)"/>
       </defs>
       <use xlink:href="#DejaVuSans-31"/>
       <use xlink:href="#DejaVuSans-30" x="63.623047"/>
       <use xlink:href="#DejaVuSans-30" x="127.246094"/>
      </g>
     </g>
    </g>
    <g id="text_11">
     <!-- Frequency -->
     <g transform="translate(18.398437 138.090625)rotate(-90)scale(0.1 -0.1)">
      <defs>
       <path id="DejaVuSans-46" d="M 628 4666 
L 3309 4666 
L 3309 4134 
L 1259 4134 
L 1259 2759 
L 3109 2759 
L 3109 2228 
L 1259 2228 
L 1259 0 
L 628 0 
L 628 4666 
z
" transform="scale(0.015625)"/>
       <path id="DejaVuSans-71" d="M 947 1747 
Q 947 1113 1208 752 
Q 1469 391 1925 391 
Q 2381 391 2643 752 
Q 2906 1113 2906 1747 
Q 2906 2381 2643 2742 
Q 2381 3103 1925 3103 
Q 1469 3103 1208 2742 
Q 947 2381 947 1747 
z
M 2906 525 
Q 2725 213 2448 61 
Q 2172 -91 1784 -91 
Q 1150 -91 751 415 
Q 353 922 353 1747 
Q 353 2572 751 3078 
Q 1150 3584 1784 3584 
Q 2172 3584 2448 3432 
Q 2725 3281 2906 2969 
L 2906 3500 
L 3481 3500 
L 3481 -1331 
L 2906 -1331 
L 2906 525 
z
" transform="scale(0.015625)"/>
       <path id="DejaVuSans-6e" d="M 3513 2113 
L 3513 0 
L 2938 0 
L 2938 2094 
Q 2938 2591 2744 2837 
Q 2550 3084 2163 3084 
Q 1697 3084 1428 2787 
Q 1159 2491 1159 1978 
L 1159 0 
L 581 0 
L 581 3500 
L 1159 3500 
L 1159 2956 
Q 1366 3272 1645 3428 
Q 1925 3584 2291 3584 
Q 2894 3584 3203 3211 
Q 3513 2838 3513 2113 
z
" transform="scale(0.015625)"/>
       <path id="DejaVuSans-63" d="M 3122 3366 
L 3122 2828 
Q 2878 2963 2633 3030 
Q 2388 3097 2138 3097 
Q 1578 3097 1268 2742 
Q 959 2388 959 1747 
Q 959 1106 1268 751 
Q 1578 397 2138 397 
Q 2388 397 2633 464 
Q 2878 531 3122 666 
L 3122 134 
Q 2881 22 2623 -34 
Q 2366 -91 2075 -91 
Q 1284 -91 818 406 
Q 353 903 353 1747 
Q 353 2603 823 3093 
Q 1294 3584 2113 3584 
Q 2378 3584 2631 3529 
Q 2884 3475 3122 3366 
z
" transform="scale(0.015625)"/>
       <path id="DejaVuSans-79" d="M 2059 -325 
Q 1816 -950 1584 -1140 
Q 1353 -1331 966 -1331 
L 506 -1331 
L 506 -850 
L 844 -850 
Q 1081 -850 1212 -737 
Q 1344 -625 1503 -206 
L 1606 56 
L 191 3500 
L 800 3500 
L 1894 763 
L 2988 3500 
L 3597 3500 
L 2059 -325 
z
" transform="scale(0.015625)"/>
      </defs>
      <use xlink:href="#DejaVuSans-46"/>
      <use xlink:href="#DejaVuSans-72" x="50.269531"/>
      <use xlink:href="#DejaVuSans-65" x="89.132812"/>
      <use xlink:href="#DejaVuSans-71" x="150.65625"/>
      <use xlink:href="#DejaVuSans-75" x="214.132812"/>
      <use xlink:href="#DejaVuSans-65" x="277.511719"/>
      <use xlink:href="#DejaVuSans-6e" x="339.035156"/>
      <use xlink:href="#DejaVuSans-63" x="402.414062"/>
      <use xlink:href="#DejaVuSans-79" x="457.394531"/>
     </g>
    </g>
   </g>
   <g id="LineCollection_1">
    <path d="M 161.186549 198.60375 
L 161.186549 34.14125 
" clip-path="url(#p0074dbbd77)" style="fill: none; stroke: #000000; stroke-width: 1.5"/>
   </g>
   <g id="patch_33">
    <path d="M 50.565625 198.60375 
L 50.565625 25.918125 
" style="fill: none; stroke: #000000; stroke-width: 0.8; stroke-linejoin: miter; stroke-linecap: square"/>
   </g>
   <g id="patch_34">
    <path d="M 253.791667 198.60375 
L 253.791667 25.918125 
" style="fill: none; stroke: #000000; stroke-width: 0.8; stroke-linejoin: miter; stroke-linecap: square"/>
   </g>
   <g id="patch_35">
    <path d="M 50.565625 198.60375 
L 253.791667 198.60375 
" style="fill: none; stroke: #000000; stroke-width: 0.8; stroke-linejoin: miter; stroke-linecap: square"/>
   </g>
   <g id="patch_36">
    <path d="M 50.565625 25.918125 
L 253.791667 25.918125 
" style="fill: none; stroke: #000000; stroke-width: 0.8; stroke-linejoin: miter; stroke-linecap: square"/>
   </g>
  </g>
  <g id="axes_2">
   <g id="patch_37">
    <path d="M 278.269792 198.60375 
L 481.495833 198.60375 
L 481.495833 25.918125 
L 278.269792 25.918125 
z
" style="fill: #ffffff"/>
   </g>
   <g id="patch_38">
    <path d="M 287.507339 198.60375 
L 293.665704 198.60375 
L 293.665704 197.108636 
L 287.507339 197.108636 
z
" clip-path="url(#pb040f82d63)" style="fill: #add8e6"/>
   </g>
   <g id="patch_39">
    <path d="M 293.665704 198.60375 
L 299.824069 198.60375 
L 299.824069 194.118409 
L 293.665704 194.118409 
z
" clip-path="url(#pb040f82d63)" style="fill: #add8e6"/>
   </g>
   <g id="patch_40">
    <path d="M 299.824069 198.60375 
L 305.982434 198.60375 
L 305.982434 192.623295 
L 299.824069 192.623295 
z
" clip-path="url(#pb040f82d63)" style="fill: #add8e6"/>
   </g>
   <g id="patch_41">
    <path d="M 305.982434 198.60375 
L 312.140799 198.60375 
L 312.140799 198.60375 
L 305.982434 198.60375 
z
" clip-path="url(#pb040f82d63)" style="fill: #add8e6"/>
   </g>
   <g id="patch_42">
    <path d="M 312.140799 198.60375 
L 318.299164 198.60375 
L 318.299164 183.652614 
L 312.140799 183.652614 
z
" clip-path="url(#pb040f82d63)" style="fill: #add8e6"/>
   </g>
   <g id="patch_43">
    <path d="M 318.299164 198.60375 
L 324.457528 198.60375 
L 324.457528 171.691705 
L 318.299164 171.691705 
z
" clip-path="url(#pb040f82d63)" style="fill: #add8e6"/>
   </g>
   <g id="patch_44">
    <path d="M 324.457528 198.60375 
L 330.615893 198.60375 
L 330.615893 162.721023 
L 324.457528 162.721023 
z
" clip-path="url(#pb040f82d63)" style="fill: #add8e6"/>
   </g>
   <g id="patch_45">
    <path d="M 330.615893 198.60375 
L 336.774258 198.60375 
L 336.774258 152.255227 
L 330.615893 152.255227 
z
" clip-path="url(#pb040f82d63)" style="fill: #add8e6"/>
   </g>
   <g id="patch_46">
    <path d="M 336.774258 198.60375 
L 342.932623 198.60375 
L 342.932623 150.760114 
L 336.774258 150.760114 
z
" clip-path="url(#pb040f82d63)" style="fill: #add8e6"/>
   </g>
   <g id="patch_47">
    <path d="M 342.932623 198.60375 
L 349.090988 198.60375 
L 349.090988 129.828523 
L 342.932623 129.828523 
z
" clip-path="url(#pb040f82d63)" style="fill: #add8e6"/>
   </g>
   <g id="patch_48">
    <path d="M 349.090988 198.60375 
L 355.249353 198.60375 
L 355.249353 117.867614 
L 349.090988 117.867614 
z
" clip-path="url(#pb040f82d63)" style="fill: #add8e6"/>
   </g>
   <g id="patch_49">
    <path d="M 355.249353 198.60375 
L 361.407718 198.60375 
L 361.407718 119.362727 
L 355.249353 119.362727 
z
" clip-path="url(#pb040f82d63)" style="fill: #add8e6"/>
   </g>
   <g id="patch_50">
    <path d="M 361.407718 198.60375 
L 367.566083 198.60375 
L 367.566083 67.03375 
L 361.407718 67.03375 
z
" clip-path="url(#pb040f82d63)" style="fill: #add8e6"/>
   </g>
   <g id="patch_51">
    <path d="M 367.566083 198.60375 
L 373.724448 198.60375 
L 373.724448 80.489773 
L 367.566083 80.489773 
z
" clip-path="url(#pb040f82d63)" style="fill: #add8e6"/>
   </g>
   <g id="patch_52">
    <path d="M 373.724448 198.60375 
L 379.882813 198.60375 
L 379.882813 53.577727 
L 373.724448 53.577727 
z
" clip-path="url(#pb040f82d63)" style="fill: #add8e6"/>
   </g>
   <g id="patch_53">
    <path d="M 379.882812 198.60375 
L 386.041177 198.60375 
L 386.041177 47.597273 
L 379.882812 47.597273 
z
" clip-path="url(#pb040f82d63)" style="fill: #add8e6"/>
   </g>
   <g id="patch_54">
    <path d="M 386.041177 198.60375 
L 392.199542 198.60375 
L 392.199542 95.440909 
L 386.041177 95.440909 
z
" clip-path="url(#pb040f82d63)" style="fill: #add8e6"/>
   </g>
   <g id="patch_55">
    <path d="M 392.199542 198.60375 
L 398.357907 198.60375 
L 398.357907 77.499545 
L 392.199542 77.499545 
z
" clip-path="url(#pb040f82d63)" style="fill: #add8e6"/>
   </g>
   <g id="patch_56">
    <path d="M 398.357907 198.60375 
L 404.516272 198.60375 
L 404.516272 117.867614 
L 398.357907 117.867614 
z
" clip-path="url(#pb040f82d63)" style="fill: #add8e6"/>
   </g>
   <g id="patch_57">
    <path d="M 404.516272 198.60375 
L 410.674637 198.60375 
L 410.674637 135.808977 
L 404.516272 135.808977 
z
" clip-path="url(#pb040f82d63)" style="fill: #add8e6"/>
   </g>
   <g id="patch_58">
    <path d="M 410.674637 198.60375 
L 416.833002 198.60375 
L 416.833002 143.284545 
L 410.674637 143.284545 
z
" clip-path="url(#pb040f82d63)" style="fill: #add8e6"/>
   </g>
   <g id="patch_59">
    <path d="M 416.833002 198.60375 
L 422.991367 198.60375 
L 422.991367 167.206364 
L 416.833002 167.206364 
z
" clip-path="url(#pb040f82d63)" style="fill: #add8e6"/>
   </g>
   <g id="patch_60">
    <path d="M 422.991367 198.60375 
L 429.149732 198.60375 
L 429.149732 168.701477 
L 422.991367 168.701477 
z
" clip-path="url(#pb040f82d63)" style="fill: #add8e6"/>
   </g>
   <g id="patch_61">
    <path d="M 429.149732 198.60375 
L 435.308097 198.60375 
L 435.308097 179.167273 
L 429.149732 179.167273 
z
" clip-path="url(#pb040f82d63)" style="fill: #add8e6"/>
   </g>
   <g id="patch_62">
    <path d="M 435.308097 198.60375 
L 441.466461 198.60375 
L 441.466461 188.137955 
L 435.308097 188.137955 
z
" clip-path="url(#pb040f82d63)" style="fill: #add8e6"/>
   </g>
   <g id="patch_63">
    <path d="M 441.466461 198.60375 
L 447.624826 198.60375 
L 447.624826 188.137955 
L 441.466461 188.137955 
z
" clip-path="url(#pb040f82d63)" style="fill: #add8e6"/>
   </g>
   <g id="patch_64">
    <path d="M 447.624826 198.60375 
L 453.783191 198.60375 
L 453.783191 192.623295 
L 447.624826 192.623295 
z
" clip-path="url(#pb040f82d63)" style="fill: #add8e6"/>
   </g>
   <g id="patch_65">
    <path d="M 453.783191 198.60375 
L 459.941556 198.60375 
L 459.941556 195.613523 
L 453.783191 195.613523 
z
" clip-path="url(#pb040f82d63)" style="fill: #add8e6"/>
   </g>
   <g id="patch_66">
    <path d="M 459.941556 198.60375 
L 466.099921 198.60375 
L 466.099921 197.108636 
L 459.941556 197.108636 
z
" clip-path="url(#pb040f82d63)" style="fill: #add8e6"/>
   </g>
   <g id="patch_67">
    <path d="M 466.099921 198.60375 
L 472.258286 198.60375 
L 472.258286 197.108636 
L 466.099921 197.108636 
z
" clip-path="url(#pb040f82d63)" style="fill: #add8e6"/>
   </g>
   <g id="matplotlib.axis_3">
    <g id="xtick_4">
     <g id="line2d_10">
      <g>
       <use xlink:href="#m59482e914d" x="283.932793" y="198.60375" style="stroke: #000000; stroke-width: 0.8"/>
      </g>
     </g>
     <g id="text_12">
      <!-- 0.5 -->
      <g transform="translate(275.98123 213.202188)scale(0.1 -0.1)">
       <use xlink:href="#DejaVuSans-30"/>
       <use xlink:href="#DejaVuSans-2e" x="63.623047"/>
       <use xlink:href="#DejaVuSans-35" x="95.410156"/>
      </g>
     </g>
    </g>
    <g id="xtick_5">
     <g id="line2d_11">
      <g>
       <use xlink:href="#m59482e914d" x="321.487881" y="198.60375" style="stroke: #000000; stroke-width: 0.8"/>
      </g>
     </g>
     <g id="text_13">
      <!-- 1.0 -->
      <g transform="translate(313.536319 213.202188)scale(0.1 -0.1)">
       <use xlink:href="#DejaVuSans-31"/>
       <use xlink:href="#DejaVuSans-2e" x="63.623047"/>
       <use xlink:href="#DejaVuSans-30" x="95.410156"/>
      </g>
     </g>
    </g>
    <g id="xtick_6">
     <g id="line2d_12">
      <g>
       <use xlink:href="#m59482e914d" x="359.04297" y="198.60375" style="stroke: #000000; stroke-width: 0.8"/>
      </g>
     </g>
     <g id="text_14">
      <!-- 1.5 -->
      <g transform="translate(351.091407 213.202188)scale(0.1 -0.1)">
       <use xlink:href="#DejaVuSans-31"/>
       <use xlink:href="#DejaVuSans-2e" x="63.623047"/>
       <use xlink:href="#DejaVuSans-35" x="95.410156"/>
      </g>
     </g>
    </g>
    <g id="xtick_7">
     <g id="line2d_13">
      <g>
       <use xlink:href="#m59482e914d" x="396.598059" y="198.60375" style="stroke: #000000; stroke-width: 0.8"/>
      </g>
     </g>
     <g id="text_15">
      <!-- 2.0 -->
      <g transform="translate(388.646496 213.202188)scale(0.1 -0.1)">
       <use xlink:href="#DejaVuSans-32"/>
       <use xlink:href="#DejaVuSans-2e" x="63.623047"/>
       <use xlink:href="#DejaVuSans-30" x="95.410156"/>
      </g>
     </g>
    </g>
    <g id="xtick_8">
     <g id="line2d_14">
      <g>
       <use xlink:href="#m59482e914d" x="434.153147" y="198.60375" style="stroke: #000000; stroke-width: 0.8"/>
      </g>
     </g>
     <g id="text_16">
      <!-- 2.5 -->
      <g transform="translate(426.201585 213.202188)scale(0.1 -0.1)">
       <use xlink:href="#DejaVuSans-32"/>
       <use xlink:href="#DejaVuSans-2e" x="63.623047"/>
       <use xlink:href="#DejaVuSans-35" x="95.410156"/>
      </g>
     </g>
    </g>
    <g id="xtick_9">
     <g id="line2d_15">
      <g>
       <use xlink:href="#m59482e914d" x="471.708236" y="198.60375" style="stroke: #000000; stroke-width: 0.8"/>
      </g>
     </g>
     <g id="text_17">
      <!-- 3.0 -->
      <g transform="translate(463.756673 213.202188)scale(0.1 -0.1)">
       <defs>
        <path id="DejaVuSans-33" d="M 2597 2516 
Q 3050 2419 3304 2112 
Q 3559 1806 3559 1356 
Q 3559 666 3084 287 
Q 2609 -91 1734 -91 
Q 1441 -91 1130 -33 
Q 819 25 488 141 
L 488 750 
Q 750 597 1062 519 
Q 1375 441 1716 441 
Q 2309 441 2620 675 
Q 2931 909 2931 1356 
Q 2931 1769 2642 2001 
Q 2353 2234 1838 2234 
L 1294 2234 
L 1294 2753 
L 1863 2753 
Q 2328 2753 2575 2939 
Q 2822 3125 2822 3475 
Q 2822 3834 2567 4026 
Q 2313 4219 1838 4219 
Q 1578 4219 1281 4162 
Q 984 4106 628 3988 
L 628 4550 
Q 988 4650 1302 4700 
Q 1616 4750 1894 4750 
Q 2613 4750 3031 4423 
Q 3450 4097 3450 3541 
Q 3450 3153 3228 2886 
Q 3006 2619 2597 2516 
z
" transform="scale(0.015625)"/>
       </defs>
       <use xlink:href="#DejaVuSans-33"/>
       <use xlink:href="#DejaVuSans-2e" x="63.623047"/>
       <use xlink:href="#DejaVuSans-30" x="95.410156"/>
      </g>
     </g>
    </g>
    <g id="text_18">
     <!-- Posterior beta values -->
     <g transform="translate(327.073438 226.880313)scale(0.1 -0.1)">
      <defs>
       <path id="DejaVuSans-62" d="M 3116 1747 
Q 3116 2381 2855 2742 
Q 2594 3103 2138 3103 
Q 1681 3103 1420 2742 
Q 1159 2381 1159 1747 
Q 1159 1113 1420 752 
Q 1681 391 2138 391 
Q 2594 391 2855 752 
Q 3116 1113 3116 1747 
z
M 1159 2969 
Q 1341 3281 1617 3432 
Q 1894 3584 2278 3584 
Q 2916 3584 3314 3078 
Q 3713 2572 3713 1747 
Q 3713 922 3314 415 
Q 2916 -91 2278 -91 
Q 1894 -91 1617 61 
Q 1341 213 1159 525 
L 1159 0 
L 581 0 
L 581 4863 
L 1159 4863 
L 1159 2969 
z
" transform="scale(0.015625)"/>
      </defs>
      <use xlink:href="#DejaVuSans-50"/>
      <use xlink:href="#DejaVuSans-6f" x="56.677734"/>
      <use xlink:href="#DejaVuSans-73" x="117.859375"/>
      <use xlink:href="#DejaVuSans-74" x="169.958984"/>
      <use xlink:href="#DejaVuSans-65" x="209.167969"/>
      <use xlink:href="#DejaVuSans-72" x="270.691406"/>
      <use xlink:href="#DejaVuSans-69" x="311.804688"/>
      <use xlink:href="#DejaVuSans-6f" x="339.587891"/>
      <use xlink:href="#DejaVuSans-72" x="400.769531"/>
      <use xlink:href="#DejaVuSans-20" x="441.882812"/>
      <use xlink:href="#DejaVuSans-62" x="473.669922"/>
      <use xlink:href="#DejaVuSans-65" x="537.146484"/>
      <use xlink:href="#DejaVuSans-74" x="598.669922"/>
      <use xlink:href="#DejaVuSans-61" x="637.878906"/>
      <use xlink:href="#DejaVuSans-20" x="699.158203"/>
      <use xlink:href="#DejaVuSans-76" x="730.945312"/>
      <use xlink:href="#DejaVuSans-61" x="790.125"/>
      <use xlink:href="#DejaVuSans-6c" x="851.404297"/>
      <use xlink:href="#DejaVuSans-75" x="879.1875"/>
      <use xlink:href="#DejaVuSans-65" x="942.566406"/>
      <use xlink:href="#DejaVuSans-73" x="1004.089844"/>
     </g>
    </g>
   </g>
   <g id="matplotlib.axis_4">
    <g id="ytick_7">
     <g id="line2d_16">
      <g>
       <use xlink:href="#m16b4537dc5" x="278.269792" y="198.60375" style="stroke: #000000; stroke-width: 0.8"/>
      </g>
     </g>
    </g>
    <g id="ytick_8">
     <g id="line2d_17">
      <g>
       <use xlink:href="#m16b4537dc5" x="278.269792" y="168.701477" style="stroke: #000000; stroke-width: 0.8"/>
      </g>
     </g>
    </g>
    <g id="ytick_9">
     <g id="line2d_18">
      <g>
       <use xlink:href="#m16b4537dc5" x="278.269792" y="138.799205" style="stroke: #000000; stroke-width: 0.8"/>
      </g>
     </g>
    </g>
    <g id="ytick_10">
     <g id="line2d_19">
      <g>
       <use xlink:href="#m16b4537dc5" x="278.269792" y="108.896932" style="stroke: #000000; stroke-width: 0.8"/>
      </g>
     </g>
    </g>
    <g id="ytick_11">
     <g id="line2d_20">
      <g>
       <use xlink:href="#m16b4537dc5" x="278.269792" y="78.994659" style="stroke: #000000; stroke-width: 0.8"/>
      </g>
     </g>
    </g>
    <g id="ytick_12">
     <g id="line2d_21">
      <g>
       <use xlink:href="#m16b4537dc5" x="278.269792" y="49.092386" style="stroke: #000000; stroke-width: 0.8"/>
      </g>
     </g>
    </g>
    <g id="text_19">
     <!-- Frequency -->
     <g transform="translate(272.190104 138.090625)rotate(-90)scale(0.1 -0.1)">
      <use xlink:href="#DejaVuSans-46"/>
      <use xlink:href="#DejaVuSans-72" x="50.269531"/>
      <use xlink:href="#DejaVuSans-65" x="89.132812"/>
      <use xlink:href="#DejaVuSans-71" x="150.65625"/>
      <use xlink:href="#DejaVuSans-75" x="214.132812"/>
      <use xlink:href="#DejaVuSans-65" x="277.511719"/>
      <use xlink:href="#DejaVuSans-6e" x="339.035156"/>
      <use xlink:href="#DejaVuSans-63" x="402.414062"/>
      <use xlink:href="#DejaVuSans-79" x="457.394531"/>
     </g>
    </g>
   </g>
   <g id="LineCollection_2">
    <path d="M 381.576023 198.60375 
L 381.576023 34.14125 
" clip-path="url(#pb040f82d63)" style="fill: none; stroke: #000000; stroke-width: 1.5"/>
   </g>
   <g id="patch_68">
    <path d="M 278.269792 198.60375 
L 278.269792 25.918125 
" style="fill: none; stroke: #000000; stroke-width: 0.8; stroke-linejoin: miter; stroke-linecap: square"/>
   </g>
   <g id="patch_69">
    <path d="M 481.495833 198.60375 
L 481.495833 25.918125 
" style="fill: none; stroke: #000000; stroke-width: 0.8; stroke-linejoin: miter; stroke-linecap: square"/>
   </g>
   <g id="patch_70">
    <path d="M 278.269792 198.60375 
L 481.495833 198.60375 
" style="fill: none; stroke: #000000; stroke-width: 0.8; stroke-linejoin: miter; stroke-linecap: square"/>
   </g>
   <g id="patch_71">
    <path d="M 278.269792 25.918125 
L 481.495833 25.918125 
" style="fill: none; stroke: #000000; stroke-width: 0.8; stroke-linejoin: miter; stroke-linecap: square"/>
   </g>
   <g id="text_20">
    <!-- Estimated Parameter Values -->
    <g transform="translate(294.940625 19.918125)scale(0.12 -0.12)">
     <defs>
      <path id="DejaVuSans-45" d="M 628 4666 
L 3578 4666 
L 3578 4134 
L 1259 4134 
L 1259 2753 
L 3481 2753 
L 3481 2222 
L 1259 2222 
L 1259 531 
L 3634 531 
L 3634 0 
L 628 0 
L 628 4666 
z
" transform="scale(0.015625)"/>
      <path id="DejaVuSans-6d" d="M 3328 2828 
Q 3544 3216 3844 3400 
Q 4144 3584 4550 3584 
Q 5097 3584 5394 3201 
Q 5691 2819 5691 2113 
L 5691 0 
L 5113 0 
L 5113 2094 
Q 5113 2597 4934 2840 
Q 4756 3084 4391 3084 
Q 3944 3084 3684 2787 
Q 3425 2491 3425 1978 
L 3425 0 
L 2847 0 
L 2847 2094 
Q 2847 2600 2669 2842 
Q 2491 3084 2119 3084 
Q 1678 3084 1418 2786 
Q 1159 2488 1159 1978 
L 1159 0 
L 581 0 
L 581 3500 
L 1159 3500 
L 1159 2956 
Q 1356 3278 1631 3431 
Q 1906 3584 2284 3584 
Q 2666 3584 2933 3390 
Q 3200 3197 3328 2828 
z
" transform="scale(0.015625)"/>
      <path id="DejaVuSans-64" d="M 2906 2969 
L 2906 4863 
L 3481 4863 
L 3481 0 
L 2906 0 
L 2906 525 
Q 2725 213 2448 61 
Q 2172 -91 1784 -91 
Q 1150 -91 751 415 
Q 353 922 353 1747 
Q 353 2572 751 3078 
Q 1150 3584 1784 3584 
Q 2172 3584 2448 3432 
Q 2725 3281 2906 2969 
z
M 947 1747 
Q 947 1113 1208 752 
Q 1469 391 1925 391 
Q 2381 391 2643 752 
Q 2906 1113 2906 1747 
Q 2906 2381 2643 2742 
Q 2381 3103 1925 3103 
Q 1469 3103 1208 2742 
Q 947 2381 947 1747 
z
" transform="scale(0.015625)"/>
      <path id="DejaVuSans-56" d="M 1831 0 
L 50 4666 
L 709 4666 
L 2188 738 
L 3669 4666 
L 4325 4666 
L 2547 0 
L 1831 0 
z
" transform="scale(0.015625)"/>
     </defs>
     <use xlink:href="#DejaVuSans-45"/>
     <use xlink:href="#DejaVuSans-73" x="63.183594"/>
     <use xlink:href="#DejaVuSans-74" x="115.283203"/>
     <use xlink:href="#DejaVuSans-69" x="154.492188"/>
     <use xlink:href="#DejaVuSans-6d" x="182.275391"/>
     <use xlink:href="#DejaVuSans-61" x="279.6875"/>
     <use xlink:href="#DejaVuSans-74" x="340.966797"/>
     <use xlink:href="#DejaVuSans-65" x="380.175781"/>
     <use xlink:href="#DejaVuSans-64" x="441.699219"/>
     <use xlink:href="#DejaVuSans-20" x="505.175781"/>
     <use xlink:href="#DejaVuSans-50" x="536.962891"/>
     <use xlink:href="#DejaVuSans-61" x="592.765625"/>
     <use xlink:href="#DejaVuSans-72" x="654.044922"/>
     <use xlink:href="#DejaVuSans-61" x="695.158203"/>
     <use xlink:href="#DejaVuSans-6d" x="756.4375"/>
     <use xlink:href="#DejaVuSans-65" x="853.849609"/>
     <use xlink:href="#DejaVuSans-74" x="915.373047"/>
     <use xlink:href="#DejaVuSans-65" x="954.582031"/>
     <use xlink:href="#DejaVuSans-72" x="1016.105469"/>
     <use xlink:href="#DejaVuSans-20" x="1057.21875"/>
     <use xlink:href="#DejaVuSans-56" x="1089.005859"/>
     <use xlink:href="#DejaVuSans-61" x="1149.664062"/>
     <use xlink:href="#DejaVuSans-6c" x="1210.943359"/>
     <use xlink:href="#DejaVuSans-75" x="1238.726562"/>
     <use xlink:href="#DejaVuSans-65" x="1302.105469"/>
     <use xlink:href="#DejaVuSans-73" x="1363.628906"/>
    </g>
   </g>
  </g>
  <g id="axes_3">
   <g id="patch_72">
    <path d="M 505.973958 198.60375 
L 709.2 198.60375 
L 709.2 25.918125 
L 505.973958 25.918125 
z
" style="fill: #ffffff"/>
   </g>
   <g id="patch_73">
    <path d="M 515.211506 198.60375 
L 521.369871 198.60375 
L 521.369871 189.633068 
L 515.211506 189.633068 
z
" clip-path="url(#p64a0070a30)" style="fill: #add8e6"/>
   </g>
   <g id="patch_74">
    <path d="M 521.369871 198.60375 
L 527.528235 198.60375 
L 527.528235 158.235682 
L 521.369871 158.235682 
z
" clip-path="url(#p64a0070a30)" style="fill: #add8e6"/>
   </g>
   <g id="patch_75">
    <path d="M 527.528235 198.60375 
L 533.6866 198.60375 
L 533.6866 119.362727 
L 527.528235 119.362727 
z
" clip-path="url(#p64a0070a30)" style="fill: #add8e6"/>
   </g>
   <g id="patch_76">
    <path d="M 533.6866 198.60375 
L 539.844965 198.60375 
L 539.844965 70.023977 
L 533.6866 70.023977 
z
" clip-path="url(#p64a0070a30)" style="fill: #add8e6"/>
   </g>
   <g id="patch_77">
    <path d="M 539.844965 198.60375 
L 546.00333 198.60375 
L 546.00333 68.528864 
L 539.844965 68.528864 
z
" clip-path="url(#p64a0070a30)" style="fill: #add8e6"/>
   </g>
   <g id="patch_78">
    <path d="M 546.00333 198.60375 
L 552.161695 198.60375 
L 552.161695 59.558182 
L 546.00333 59.558182 
z
" clip-path="url(#p64a0070a30)" style="fill: #add8e6"/>
   </g>
   <g id="patch_79">
    <path d="M 552.161695 198.60375 
L 558.32006 198.60375 
L 558.32006 38.626591 
L 552.161695 38.626591 
z
" clip-path="url(#p64a0070a30)" style="fill: #add8e6"/>
   </g>
   <g id="patch_80">
    <path d="M 558.32006 198.60375 
L 564.478425 198.60375 
L 564.478425 59.558182 
L 558.32006 59.558182 
z
" clip-path="url(#p64a0070a30)" style="fill: #add8e6"/>
   </g>
   <g id="patch_81">
    <path d="M 564.478425 198.60375 
L 570.63679 198.60375 
L 570.63679 61.053295 
L 564.478425 61.053295 
z
" clip-path="url(#p64a0070a30)" style="fill: #add8e6"/>
   </g>
   <g id="patch_82">
    <path d="M 570.63679 198.60375 
L 576.795155 198.60375 
L 576.795155 87.965341 
L 570.63679 87.965341 
z
" clip-path="url(#p64a0070a30)" style="fill: #add8e6"/>
   </g>
   <g id="patch_83">
    <path d="M 576.795155 198.60375 
L 582.95352 198.60375 
L 582.95352 107.401818 
L 576.795155 107.401818 
z
" clip-path="url(#p64a0070a30)" style="fill: #add8e6"/>
   </g>
   <g id="patch_84">
    <path d="M 582.95352 198.60375 
L 589.111884 198.60375 
L 589.111884 135.808977 
L 582.95352 135.808977 
z
" clip-path="url(#p64a0070a30)" style="fill: #add8e6"/>
   </g>
   <g id="patch_85">
    <path d="M 589.111884 198.60375 
L 595.270249 198.60375 
L 595.270249 131.323636 
L 589.111884 131.323636 
z
" clip-path="url(#p64a0070a30)" style="fill: #add8e6"/>
   </g>
   <g id="patch_86">
    <path d="M 595.270249 198.60375 
L 601.428614 198.60375 
L 601.428614 138.799205 
L 595.270249 138.799205 
z
" clip-path="url(#p64a0070a30)" style="fill: #add8e6"/>
   </g>
   <g id="patch_87">
    <path d="M 601.428614 198.60375 
L 607.586979 198.60375 
L 607.586979 170.196591 
L 601.428614 170.196591 
z
" clip-path="url(#p64a0070a30)" style="fill: #add8e6"/>
   </g>
   <g id="patch_88">
    <path d="M 607.586979 198.60375 
L 613.745344 198.60375 
L 613.745344 165.71125 
L 607.586979 165.71125 
z
" clip-path="url(#p64a0070a30)" style="fill: #add8e6"/>
   </g>
   <g id="patch_89">
    <path d="M 613.745344 198.60375 
L 619.903709 198.60375 
L 619.903709 176.177045 
L 613.745344 176.177045 
z
" clip-path="url(#p64a0070a30)" style="fill: #add8e6"/>
   </g>
   <g id="patch_90">
    <path d="M 619.903709 198.60375 
L 626.062074 198.60375 
L 626.062074 182.1575 
L 619.903709 182.1575 
z
" clip-path="url(#p64a0070a30)" style="fill: #add8e6"/>
   </g>
   <g id="patch_91">
    <path d="M 626.062074 198.60375 
L 632.220439 198.60375 
L 632.220439 188.137955 
L 626.062074 188.137955 
z
" clip-path="url(#p64a0070a30)" style="fill: #add8e6"/>
   </g>
   <g id="patch_92">
    <path d="M 632.220439 198.60375 
L 638.378804 198.60375 
L 638.378804 189.633068 
L 632.220439 189.633068 
z
" clip-path="url(#p64a0070a30)" style="fill: #add8e6"/>
   </g>
   <g id="patch_93">
    <path d="M 638.378804 198.60375 
L 644.537169 198.60375 
L 644.537169 194.118409 
L 638.378804 194.118409 
z
" clip-path="url(#p64a0070a30)" style="fill: #add8e6"/>
   </g>
   <g id="patch_94">
    <path d="M 644.537169 198.60375 
L 650.695533 198.60375 
L 650.695533 194.118409 
L 644.537169 194.118409 
z
" clip-path="url(#p64a0070a30)" style="fill: #add8e6"/>
   </g>
   <g id="patch_95">
    <path d="M 650.695533 198.60375 
L 656.853898 198.60375 
L 656.853898 195.613523 
L 650.695533 195.613523 
z
" clip-path="url(#p64a0070a30)" style="fill: #add8e6"/>
   </g>
   <g id="patch_96">
    <path d="M 656.853898 198.60375 
L 663.012263 198.60375 
L 663.012263 195.613523 
L 656.853898 195.613523 
z
" clip-path="url(#p64a0070a30)" style="fill: #add8e6"/>
   </g>
   <g id="patch_97">
    <path d="M 663.012263 198.60375 
L 669.170628 198.60375 
L 669.170628 198.60375 
L 663.012263 198.60375 
z
" clip-path="url(#p64a0070a30)" style="fill: #add8e6"/>
   </g>
   <g id="patch_98">
    <path d="M 669.170628 198.60375 
L 675.328993 198.60375 
L 675.328993 197.108636 
L 669.170628 197.108636 
z
" clip-path="url(#p64a0070a30)" style="fill: #add8e6"/>
   </g>
   <g id="patch_99">
    <path d="M 675.328993 198.60375 
L 681.487358 198.60375 
L 681.487358 197.108636 
L 675.328993 197.108636 
z
" clip-path="url(#p64a0070a30)" style="fill: #add8e6"/>
   </g>
   <g id="patch_100">
    <path d="M 681.487358 198.60375 
L 687.645723 198.60375 
L 687.645723 197.108636 
L 681.487358 197.108636 
z
" clip-path="url(#p64a0070a30)" style="fill: #add8e6"/>
   </g>
   <g id="patch_101">
    <path d="M 687.645723 198.60375 
L 693.804088 198.60375 
L 693.804088 198.60375 
L 687.645723 198.60375 
z
" clip-path="url(#p64a0070a30)" style="fill: #add8e6"/>
   </g>
   <g id="patch_102">
    <path d="M 693.804088 198.60375 
L 699.962453 198.60375 
L 699.962453 197.108636 
L 693.804088 197.108636 
z
" clip-path="url(#p64a0070a30)" style="fill: #add8e6"/>
   </g>
   <g id="matplotlib.axis_5">
    <g id="xtick_10">
     <g id="line2d_22">
      <g>
       <use xlink:href="#m59482e914d" x="554.921135" y="198.60375" style="stroke: #000000; stroke-width: 0.8"/>
      </g>
     </g>
     <g id="text_21">
      <!-- 0.4 -->
      <g transform="translate(546.969573 213.202188)scale(0.1 -0.1)">
       <use xlink:href="#DejaVuSans-30"/>
       <use xlink:href="#DejaVuSans-2e" x="63.623047"/>
       <use xlink:href="#DejaVuSans-34" x="95.410156"/>
      </g>
     </g>
    </g>
    <g id="xtick_11">
     <g id="line2d_23">
      <g>
       <use xlink:href="#m59482e914d" x="620.597782" y="198.60375" style="stroke: #000000; stroke-width: 0.8"/>
      </g>
     </g>
     <g id="text_22">
      <!-- 0.6 -->
      <g transform="translate(612.646219 213.202188)scale(0.1 -0.1)">
       <use xlink:href="#DejaVuSans-30"/>
       <use xlink:href="#DejaVuSans-2e" x="63.623047"/>
       <use xlink:href="#DejaVuSans-36" x="95.410156"/>
      </g>
     </g>
    </g>
    <g id="xtick_12">
     <g id="line2d_24">
      <g>
       <use xlink:href="#m59482e914d" x="686.274428" y="198.60375" style="stroke: #000000; stroke-width: 0.8"/>
      </g>
     </g>
     <g id="text_23">
      <!-- 0.8 -->
      <g transform="translate(678.322866 213.202188)scale(0.1 -0.1)">
       <use xlink:href="#DejaVuSans-30"/>
       <use xlink:href="#DejaVuSans-2e" x="63.623047"/>
       <use xlink:href="#DejaVuSans-38" x="95.410156"/>
      </g>
     </g>
    </g>
    <g id="text_24">
     <!-- Posterior sigma values -->
     <g transform="translate(550.95026 226.880313)scale(0.1 -0.1)">
      <defs>
       <path id="DejaVuSans-67" d="M 2906 1791 
Q 2906 2416 2648 2759 
Q 2391 3103 1925 3103 
Q 1463 3103 1205 2759 
Q 947 2416 947 1791 
Q 947 1169 1205 825 
Q 1463 481 1925 481 
Q 2391 481 2648 825 
Q 2906 1169 2906 1791 
z
M 3481 434 
Q 3481 -459 3084 -895 
Q 2688 -1331 1869 -1331 
Q 1566 -1331 1297 -1286 
Q 1028 -1241 775 -1147 
L 775 -588 
Q 1028 -725 1275 -790 
Q 1522 -856 1778 -856 
Q 2344 -856 2625 -561 
Q 2906 -266 2906 331 
L 2906 616 
Q 2728 306 2450 153 
Q 2172 0 1784 0 
Q 1141 0 747 490 
Q 353 981 353 1791 
Q 353 2603 747 3093 
Q 1141 3584 1784 3584 
Q 2172 3584 2450 3431 
Q 2728 3278 2906 2969 
L 2906 3500 
L 3481 3500 
L 3481 434 
z
" transform="scale(0.015625)"/>
      </defs>
      <use xlink:href="#DejaVuSans-50"/>
      <use xlink:href="#DejaVuSans-6f" x="56.677734"/>
      <use xlink:href="#DejaVuSans-73" x="117.859375"/>
      <use xlink:href="#DejaVuSans-74" x="169.958984"/>
      <use xlink:href="#DejaVuSans-65" x="209.167969"/>
      <use xlink:href="#DejaVuSans-72" x="270.691406"/>
      <use xlink:href="#DejaVuSans-69" x="311.804688"/>
      <use xlink:href="#DejaVuSans-6f" x="339.587891"/>
      <use xlink:href="#DejaVuSans-72" x="400.769531"/>
      <use xlink:href="#DejaVuSans-20" x="441.882812"/>
      <use xlink:href="#DejaVuSans-73" x="473.669922"/>
      <use xlink:href="#DejaVuSans-69" x="525.769531"/>
      <use xlink:href="#DejaVuSans-67" x="553.552734"/>
      <use xlink:href="#DejaVuSans-6d" x="617.029297"/>
      <use xlink:href="#DejaVuSans-61" x="714.441406"/>
      <use xlink:href="#DejaVuSans-20" x="775.720703"/>
      <use xlink:href="#DejaVuSans-76" x="807.507812"/>
      <use xlink:href="#DejaVuSans-61" x="866.6875"/>
      <use xlink:href="#DejaVuSans-6c" x="927.966797"/>
      <use xlink:href="#DejaVuSans-75" x="955.75"/>
      <use xlink:href="#DejaVuSans-65" x="1019.128906"/>
      <use xlink:href="#DejaVuSans-73" x="1080.652344"/>
     </g>
    </g>
   </g>
   <g id="matplotlib.axis_6">
    <g id="ytick_13">
     <g id="line2d_25">
      <g>
       <use xlink:href="#m16b4537dc5" x="505.973958" y="198.60375" style="stroke: #000000; stroke-width: 0.8"/>
      </g>
     </g>
    </g>
    <g id="ytick_14">
     <g id="line2d_26">
      <g>
       <use xlink:href="#m16b4537dc5" x="505.973958" y="168.701477" style="stroke: #000000; stroke-width: 0.8"/>
      </g>
     </g>
    </g>
    <g id="ytick_15">
     <g id="line2d_27">
      <g>
       <use xlink:href="#m16b4537dc5" x="505.973958" y="138.799205" style="stroke: #000000; stroke-width: 0.8"/>
      </g>
     </g>
    </g>
    <g id="ytick_16">
     <g id="line2d_28">
      <g>
       <use xlink:href="#m16b4537dc5" x="505.973958" y="108.896932" style="stroke: #000000; stroke-width: 0.8"/>
      </g>
     </g>
    </g>
    <g id="ytick_17">
     <g id="line2d_29">
      <g>
       <use xlink:href="#m16b4537dc5" x="505.973958" y="78.994659" style="stroke: #000000; stroke-width: 0.8"/>
      </g>
     </g>
    </g>
    <g id="ytick_18">
     <g id="line2d_30">
      <g>
       <use xlink:href="#m16b4537dc5" x="505.973958" y="49.092386" style="stroke: #000000; stroke-width: 0.8"/>
      </g>
     </g>
    </g>
    <g id="text_25">
     <!-- Frequency -->
     <g transform="translate(499.894271 138.090625)rotate(-90)scale(0.1 -0.1)">
      <use xlink:href="#DejaVuSans-46"/>
      <use xlink:href="#DejaVuSans-72" x="50.269531"/>
      <use xlink:href="#DejaVuSans-65" x="89.132812"/>
      <use xlink:href="#DejaVuSans-71" x="150.65625"/>
      <use xlink:href="#DejaVuSans-75" x="214.132812"/>
      <use xlink:href="#DejaVuSans-65" x="277.511719"/>
      <use xlink:href="#DejaVuSans-6e" x="339.035156"/>
      <use xlink:href="#DejaVuSans-63" x="402.414062"/>
      <use xlink:href="#DejaVuSans-79" x="457.394531"/>
     </g>
    </g>
   </g>
   <g id="LineCollection_3">
    <path d="M 554.921135 198.60375 
L 554.921135 34.14125 
" clip-path="url(#p64a0070a30)" style="fill: none; stroke: #000000; stroke-width: 1.5"/>
   </g>
   <g id="patch_103">
    <path d="M 505.973958 198.60375 
L 505.973958 25.918125 
" style="fill: none; stroke: #000000; stroke-width: 0.8; stroke-linejoin: miter; stroke-linecap: square"/>
   </g>
   <g id="patch_104">
    <path d="M 709.2 198.60375 
L 709.2 25.918125 
" style="fill: none; stroke: #000000; stroke-width: 0.8; stroke-linejoin: miter; stroke-linecap: square"/>
   </g>
   <g id="patch_105">
    <path d="M 505.973958 198.60375 
L 709.2 198.60375 
" style="fill: none; stroke: #000000; stroke-width: 0.8; stroke-linejoin: miter; stroke-linecap: square"/>
   </g>
   <g id="patch_106">
    <path d="M 505.973958 25.918125 
L 709.2 25.918125 
" style="fill: none; stroke: #000000; stroke-width: 0.8; stroke-linejoin: miter; stroke-linecap: square"/>
   </g>
  </g>
 </g>
 <defs>
  <clipPath id="p0074dbbd77">
   <rect x="50.565625" y="25.918125" width="203.226042" height="172.685625"/>
  </clipPath>
  <clipPath id="pb040f82d63">
   <rect x="278.269792" y="25.918125" width="203.226042" height="172.685625"/>
  </clipPath>
  <clipPath id="p64a0070a30">
   <rect x="505.973958" y="25.918125" width="203.226042" height="172.685625"/>
  </clipPath>
 </defs>
</svg>
